<?xml version="1.0" ?>
<!-- Uploaded to: SVG Repo, www.svgrepo.com, Generator: SVG Repo Mixer Tools -->
<svg width="800px" height="800px" viewBox="0 0 64 64" xmlns="http://www.w3.org/2000/svg">
<defs>
<style>.cls-1{fill:#f57c00;}.cls-2{fill:#999;}.cls-3{fill:#666;}</style>
</defs>
<title/>
<g data-name="outline color" id="outline_color">
<path class="cls-1" d="M59,60H26a1,1,0,0,1-1-1V42a1,1,0,0,1,1-1H59a1,1,0,0,1,1,1V59A1,1,0,0,1,59,60ZM27,58H58V43H27Z"/>
<path class="cls-1" d="M30,47a1,1,0,0,1-.38-.08,1.15,1.15,0,0,1-.33-.21,1,1,0,0,1,0-1.42,1.15,1.15,0,0,1,.33-.21.92.92,0,0,1,.76,0,1.15,1.15,0,0,1,.33.21A1.05,1.05,0,0,1,31,46a1,1,0,0,1-.29.71,1.15,1.15,0,0,1-.33.21A1,1,0,0,1,30,47Z"/>
<path class="cls-1" d="M34,47a1,1,0,0,1-.38-.08,1.15,1.15,0,0,1-.33-.21A1,1,0,0,1,33,46a1.05,1.05,0,0,1,.29-.71,1.15,1.15,0,0,1,.33-.21.92.92,0,0,1,.76,0,1.15,1.15,0,0,1,.33.21,1,1,0,0,1,0,1.42,1.15,1.15,0,0,1-.33.21A1,1,0,0,1,34,47Z"/>
<path class="cls-1" d="M38,47a1,1,0,0,1-.38-.08,1.15,1.15,0,0,1-.33-.21,1,1,0,0,1,0-1.42,1.15,1.15,0,0,1,.33-.21,1,1,0,0,1,.76,0,1.15,1.15,0,0,1,.33.21,1,1,0,0,1,0,1.42,1,1,0,0,1-.33.21A1,1,0,0,1,38,47Z"/>
<path class="cls-1" d="M42,47a1,1,0,0,1-1-1,1,1,0,1,1,1,1Z"/>
<path class="cls-1" d="M46,47a1,1,0,0,1-.71-.29A1,1,0,1,1,46,47Z"/>
<path class="cls-1" d="M50,47a1,1,0,0,1-1-1,1.05,1.05,0,0,1,.29-.71l.15-.12.18-.09A.64.64,0,0,1,49.8,45a.9.9,0,0,1,.4,0,.64.64,0,0,1,.18.06l.18.09.15.12A1,1,0,0,1,50,47Z"/>
<path class="cls-1" d="M54,47a1.05,1.05,0,0,1-.71-.29A1,1,0,0,1,53,46a1.05,1.05,0,0,1,.29-.71A1,1,0,0,1,54.2,45a.64.64,0,0,1,.18.06l.18.09.15.12a1,1,0,0,1,0,1.42A1,1,0,0,1,54,47Z"/>
<path class="cls-1" d="M34,50a1,1,0,0,1-.38-.08,1.15,1.15,0,0,1-.33-.21l-.12-.15a.76.76,0,0,1-.09-.18A.64.64,0,0,1,33,49.2a1.36,1.36,0,0,1,0-.2,1.5,1.5,0,0,1,0-.2.64.64,0,0,1,.06-.18.76.76,0,0,1,.09-.18l.12-.15a1.15,1.15,0,0,1,.33-.21,1,1,0,0,1,.76,0,1,1,0,0,1,.33.21,1.58,1.58,0,0,1,.12.15.76.76,0,0,1,.09.18.64.64,0,0,1,.06.18,1.5,1.5,0,0,1,0,.2,1.36,1.36,0,0,1,0,.2.64.64,0,0,1-.06.18.76.76,0,0,1-.09.18,1.58,1.58,0,0,1-.12.15,1,1,0,0,1-.33.21A1,1,0,0,1,34,50Z"/>
<path class="cls-1" d="M38,50a1.05,1.05,0,0,1-.71-.29,1.58,1.58,0,0,1-.12-.15.76.76,0,0,1-.09-.18A.64.64,0,0,1,37,49.2a1.36,1.36,0,0,1,0-.2,1.5,1.5,0,0,1,0-.2.64.64,0,0,1,.06-.18.76.76,0,0,1,.09-.18,1.58,1.58,0,0,1,.12-.15,1,1,0,0,1,1.09-.21,1.15,1.15,0,0,1,.33.21l.12.15a.76.76,0,0,1,.09.18.64.64,0,0,1,.06.18,1.5,1.5,0,0,1,0,.2,1.36,1.36,0,0,1,0,.2.64.64,0,0,1-.06.18.76.76,0,0,1-.09.18l-.12.15a1.15,1.15,0,0,1-.33.21A1,1,0,0,1,38,50Z"/>
<path class="cls-1" d="M42,50a1.05,1.05,0,0,1-.71-.29,1,1,0,0,1,0-1.42,1,1,0,0,1,1.42,0,1,1,0,0,1,0,1.42A1.05,1.05,0,0,1,42,50Z"/>
<path class="cls-1" d="M46,50a1.05,1.05,0,0,1-.71-.29l-.12-.15a.76.76,0,0,1-.09-.18A.64.64,0,0,1,45,49.2a1.36,1.36,0,0,1,0-.2,1.05,1.05,0,0,1,.29-.71A1,1,0,0,1,46.2,48a.64.64,0,0,1,.18.06l.18.09.15.12A1.05,1.05,0,0,1,47,49a1.36,1.36,0,0,1,0,.2.64.64,0,0,1-.06.18.76.76,0,0,1-.09.18l-.12.15-.15.12-.18.09a.64.64,0,0,1-.18.06Z"/>
<path class="cls-1" d="M50,50a1.05,1.05,0,0,1-.71-.29l-.12-.15a.76.76,0,0,1-.09-.18A.64.64,0,0,1,49,49.2a1.36,1.36,0,0,1,0-.2,1,1,0,1,1,2,0,1.36,1.36,0,0,1,0,.2.64.64,0,0,1-.06.18.76.76,0,0,1-.09.18l-.12.15A1.05,1.05,0,0,1,50,50Z"/>
<path class="cls-1" d="M34,53a1,1,0,0,1-1-1,1,1,0,0,1,.08-.38,1,1,0,0,1,.21-.33,1,1,0,0,1,1.09-.21.9.9,0,0,1,.54.54A1,1,0,0,1,35,52a1.23,1.23,0,0,1,0,.19.6.6,0,0,1-.06.19.76.76,0,0,1-.09.18,1.58,1.58,0,0,1-.12.15,1.15,1.15,0,0,1-.33.21A.84.84,0,0,1,34,53Z"/>
<path class="cls-1" d="M38,53l-.2,0a.64.64,0,0,1-.18-.06l-.18-.09-.15-.12A1.05,1.05,0,0,1,37,52a1,1,0,0,1,.08-.38A1,1,0,0,1,38.2,51a.64.64,0,0,1,.18.06l.18.09.15.12a1,1,0,0,1,.21.33A1,1,0,0,1,39,52a1.05,1.05,0,0,1-.29.71l-.15.12-.18.09a.64.64,0,0,1-.18.06Z"/>
<path class="cls-1" d="M42,53a.84.84,0,0,1-.38-.08,1.15,1.15,0,0,1-.33-.21A1.05,1.05,0,0,1,41,52a1,1,0,0,1,.08-.38,1,1,0,0,1,.21-.33,1.15,1.15,0,0,1,.33-.21,1,1,0,0,1,.76,0,.9.9,0,0,1,.54.54A.84.84,0,0,1,43,52a1.23,1.23,0,0,1,0,.19.6.6,0,0,1-.06.19.76.76,0,0,1-.09.18,1.58,1.58,0,0,1-.12.15,1.15,1.15,0,0,1-.33.21A.84.84,0,0,1,42,53Z"/>
<path class="cls-1" d="M46,53l-.2,0a.64.64,0,0,1-.18-.06l-.18-.09-.15-.12A1.05,1.05,0,0,1,45,52a1,1,0,0,1,.08-.38A1,1,0,0,1,46.2,51a.64.64,0,0,1,.18.06l.18.09.15.12a1,1,0,0,1,.21.33A1,1,0,0,1,47,52a1.05,1.05,0,0,1-.29.71l-.15.12-.18.09a.64.64,0,0,1-.18.06Z"/>
<path class="cls-1" d="M30,56a1.05,1.05,0,0,1-.71-.29,1.15,1.15,0,0,1-.21-.33A1,1,0,0,1,29,55a1.05,1.05,0,0,1,.29-.71,1,1,0,0,1,1.09-.21,1.15,1.15,0,0,1,.33.21l.12.16a.56.56,0,0,1,.09.17.64.64,0,0,1,.06.18,1.36,1.36,0,0,1,0,.2,1,1,0,0,1-.08.38,1.15,1.15,0,0,1-.21.33A1.05,1.05,0,0,1,30,56Z"/>
<path class="cls-1" d="M50,56l-.2,0a.64.64,0,0,1-.18-.06.56.56,0,0,1-.17-.09,1,1,0,0,1-.16-.12,1,1,0,0,1-.21-.33A1,1,0,0,1,49,55a1,1,0,0,1,.29-.71,1,1,0,0,1,1.09-.21,1,1,0,0,1,.33.21,1,1,0,0,1,.12.16.56.56,0,0,1,.09.17.64.64,0,0,1,.06.18,1.36,1.36,0,0,1,0,.2.84.84,0,0,1-.08.38.9.9,0,0,1-.54.54A1,1,0,0,1,50,56Z"/>
<path class="cls-1" d="M54,56a1,1,0,0,1-.38-.08.9.9,0,0,1-.54-.54A1,1,0,0,1,53,55a1.36,1.36,0,0,1,0-.2.64.64,0,0,1,.06-.18.56.56,0,0,1,.09-.17,1,1,0,0,1,.12-.16,1.15,1.15,0,0,1,.33-.21,1,1,0,0,1,1.09.21A1.05,1.05,0,0,1,55,55a1,1,0,0,1-.08.38,1.15,1.15,0,0,1-.21.33,1,1,0,0,1-.16.12.56.56,0,0,1-.17.09.64.64,0,0,1-.18.06Z"/>
<path class="cls-1" d="M54,53H50a1,1,0,0,1,0-2h3V49a1,1,0,0,1,2,0v3A1,1,0,0,1,54,53Z"/>
<path class="cls-1" d="M46,56H34a1,1,0,0,1,0-2H46a1,1,0,0,1,0,2Z"/>
<path class="cls-1" d="M30,53a1,1,0,0,1-1-1V49a1,1,0,0,1,2,0v3A1,1,0,0,1,30,53Z"/>
<path class="cls-1" d="M54,43H50a1,1,0,0,1-1-1V40a3,3,0,0,1,6,0v2A1,1,0,0,1,54,43Zm-3-2h2V40a1,1,0,0,0-2,0Z"/>
<path class="cls-1" d="M52,39a1,1,0,0,1-1-1V37a6,6,0,0,1,6-6,1,1,0,0,1,0,2,4,4,0,0,0-4,4v1A1,1,0,0,1,52,39Z"/>
<path class="cls-2" d="M21.78,55.1a5,5,0,0,1-4.57-3L4.56,23.84a5,5,0,0,1,2.52-6.61L28,7.87a1,1,0,1,1,.82,1.82L7.9,19.05a3,3,0,0,0-1.52,4L19,51.32a3,3,0,0,0,2.91,1.77,1,1,0,1,1,.12,2Z"/>
<path class="cls-3" d="M20.12,31.54a.92.92,0,0,1-.36-.07l-5.91-2.26a.94.94,0,0,1-.55-.52,1,1,0,0,1,0-.77l2.86-7.47a1,1,0,1,1,1.86.72L15.5,27.7l5,1.91a1,1,0,0,1-.36,1.93Z"/>
<path class="cls-3" d="M23.66,22.28a1,1,0,0,1-1-.85l-.85-5.61a1,1,0,1,1,2-.3l.85,5.61a1,1,0,0,1-.84,1.14Z"/>
<path class="cls-2" d="M22,43.56a.92.92,0,0,1-.36-.07l-1.92-.73a5,5,0,0,1-2.87-6.45l11.06-29a5,5,0,0,1,6.46-2.88L56.79,13a5,5,0,0,1,2.89,6.44l-3.46,9a1,1,0,0,1-1.86-.72l3.45-9a3,3,0,0,0-1.74-3.87L33.65,6.33a3,3,0,0,0-3.88,1.74L18.71,37a3,3,0,0,0,1.73,3.87l1.92.73a1,1,0,0,1,.57,1.29A1,1,0,0,1,22,43.56Z"/>
<path class="cls-3" d="M31.88,29.94a1,1,0,0,1-.92-.59l-3.26-7.3a1,1,0,0,1,.5-1.33l7.31-3.26a1,1,0,1,1,.81,1.83l-6.39,2.85,2.86,6.39a1,1,0,0,1-.51,1.32A1,1,0,0,1,31.88,29.94Z"/>
<path class="cls-3" d="M41.7,33.7a1,1,0,0,1-.41-1.92l6.39-2.85-2.86-6.39a1,1,0,1,1,1.83-.82L49.91,29a1,1,0,0,1-.5,1.32L42.1,33.61A1,1,0,0,1,41.7,33.7Z"/>
<path class="cls-3" d="M33.13,34a1,1,0,0,1-.6-.2,1,1,0,0,1-.21-1.39l10.49-14.2a1,1,0,1,1,1.6,1.19L33.93,33.59A1,1,0,0,1,33.13,34Z"/>
</g>
</svg>